<?xml version="1.0" standalone="no"?>
<!DOCTYPE svg PUBLIC "-//W3C//DTD SVG 1.1//EN" "http://www.w3.org/Graphics/SVG/1.1/DTD/svg11.dtd" >
<svg xmlns="http://www.w3.org/2000/svg" xmlns:xlink="http://www.w3.org/1999/xlink" version="1.1">
<metadata></metadata>
<defs>
<font id="stellar_gothicregular" horiz-adv-x="566" >
<font-face units-per-em="1000" ascent="750" descent="-250" />
<missing-glyph horiz-adv-x="300" />
<glyph unicode=" "  horiz-adv-x="300" />
<glyph unicode="&#x09;" horiz-adv-x="300" />
<glyph unicode="&#xa0;" horiz-adv-x="300" />
<glyph unicode="!" horiz-adv-x="251" d="M76 95h99v-95h-99v95zM76 680h99v-149l-15 -339h-69l-15 339v149z" />
<glyph unicode="&#x22;" horiz-adv-x="315" d="M41 615v90h84v-90l-16 -149h-52zM190 615v90h84v-90l-16 -149h-52z" />
<glyph unicode="#" horiz-adv-x="867" d="M579 680h89l-34 -180h146v-74h-160l-32 -165h147v-74h-161l-35 -187h-88l35 187h-170l-35 -187h-89l35 187h-146v74h160l31 165h-146v74h160l34 180h89l-34 -180h170zM361 426l-31 -165h170l31 165h-170z" />
<glyph unicode="$" horiz-adv-x="623" d="M269 774h100v-85q83 -10 128 -50.5t60 -117.5l-96 -29q-10 63 -44 91.5t-103 28.5q-61 0 -100 -35t-39 -84q0 -17 5 -31t19 -24.5t23.5 -17t34.5 -14t36 -10t42 -9.5q35 -7 52.5 -11.5t47.5 -13.5t45.5 -17.5t36.5 -23.5t31 -32.5t17.5 -42.5t7.5 -56q0 -84 -53.5 -136 t-150.5 -63v-90h-100v90q-164 20 -211 171l94 36q33 -130 166 -130q73 0 114 33.5t41 88.5q0 33 -23 54t-45 28.5t-75 18.5l-6 1.5t-5 1t-6 1.5q-33 7 -46.5 10.5t-42 11t-41.5 14t-34.5 18t-31.5 24.5t-21.5 30.5t-16 40t-4.5 49.5q0 74 53.5 128.5t140.5 67.5v85z" />
<glyph unicode="%" horiz-adv-x="866" d="M493 162q0 78 46.5 127t121.5 49q74 0 121.5 -49t47.5 -127q0 -77 -47.5 -125.5t-121.5 -48.5q-75 0 -121.5 48.5t-46.5 125.5zM581 162q0 -44 22 -72t58 -28t58.5 28t22.5 72q0 45 -22.5 73.5t-58.5 28.5t-58 -28.5t-22 -73.5zM52 541q0 78 46.5 127t121.5 49 q74 0 121.5 -49t47.5 -127q0 -77 -47.5 -125.5t-121.5 -48.5q-75 0 -121.5 48.5t-46.5 125.5zM140 541q0 -44 22 -72t58 -28t58.5 28t22.5 72q0 45 -22.5 73.5t-58.5 28.5t-58 -28.5t-22 -73.5zM662 717l70 -44l-509 -685l-70 44z" />
<glyph unicode="&#x26;" horiz-adv-x="617" d="M575 38l-72 -50l-65 78q-73 -78 -184 -78q-101 0 -152.5 51.5t-51.5 135.5q0 62 36 105.5t103 88.5q-47 60 -64.5 93t-17.5 71q0 76 45 117.5t120 41.5t119.5 -41.5t44.5 -117.5q0 -90 -121 -180q38 -45 112 -135q22 52 36 122l92 -16q-24 -113 -63 -185zM254 68 q74 0 127 67l-138 169q-47 -32 -73 -62t-26 -67q0 -47 28 -77t82 -30zM262 418q80 60 80 115q0 38 -19 58.5t-51 20.5t-51.5 -20.5t-19.5 -58.5q0 -24 12.5 -46t48.5 -69z" />
<glyph unicode="'" horiz-adv-x="166" d="M41 615v90h84v-90l-16 -149h-52z" />
<glyph unicode="(" horiz-adv-x="326" d="M236 717l64 -58q-6 -6 -16 -16.5t-35 -47.5t-44 -78.5t-35 -106.5t-16 -134q0 -66 15.5 -130.5t37 -109.5t43.5 -80.5t38 -53.5l15 -17l-68 -56q-7 7 -19 21t-42 59.5t-53 94.5t-42 123.5t-19 148.5q0 77 18 150.5t44 124t52 90t44 57.5z" />
<glyph unicode=")" horiz-adv-x="326" d="M26 659l64 58q7 -7 19 -19.5t42.5 -56t53.5 -91.5t42 -122.5t19 -151.5q0 -74 -18 -147.5t-43.5 -125.5t-51.5 -93t-44 -61l-18 -20l-68 56q6 6 16 18t36 51.5t45.5 82t35.5 108t16 131.5q0 69 -15 133.5t-36.5 108t-43 77t-36.5 49.5z" />
<glyph unicode="*" horiz-adv-x="475" d="M193 680h90l-7 -135l127 49l28 -86l-134 -35l88 -108l-72 -52l-75 115l-75 -115l-72 52l87 108l-134 35l28 86l128 -50z" />
<glyph unicode="+" horiz-adv-x="546" d="M226 470h89v-183h182v-74h-182v-183h-89v183h-183v74h183v183z" />
<glyph unicode="," horiz-adv-x="176" d="M71 -122l-28 46q42 11 42 76h-44v90h94v-90q0 -53 -14.5 -82t-49.5 -40z" />
<glyph unicode="-" horiz-adv-x="378" d="M41 231v80h296v-80h-296z" />
<glyph unicode="." horiz-adv-x="176" d="M41 90h94v-90h-94v90z" />
<glyph unicode="/" horiz-adv-x="440" d="M111 0h-93l294 705h93z" />
<glyph unicode="0" horiz-adv-x="622" d="M60 343q0 158 63.5 252t186.5 94q124 0 188 -91.5t64 -254.5q0 -158 -65 -255t-187 -97t-186 97t-64 255zM160 343q0 -122 37.5 -197t112.5 -75t113.5 75t38.5 197q0 266 -152 266q-75 0 -112.5 -72t-37.5 -194z" />
<glyph unicode="1" horiz-adv-x="378" d="M45 493l-17 83q67 1 113.5 33.5t46.5 70.5h100v-7v-673h-100v535q-64 -38 -143 -42z" />
<glyph unicode="2" d="M522 493q0 -42 -10.5 -76.5t-24.5 -57.5t-43 -47t-51 -38t-64 -38q-6 -3 -24 -13.5t-24 -14.5t-22 -13.5t-22 -14t-18.5 -13.5t-18.5 -15l-15 -15t-13.5 -16.5t-9.5 -17t-8 -19.5h364v-84h-468v50q0 40 12.5 75t28 58t48 49t55 40t66.5 39q4 2 6.5 3.5t6 3.5t6.5 4 q41 24 60.5 36.5t42.5 33.5t31.5 45t8.5 56q0 55 -34.5 85t-100.5 30q-68 0 -105 -35.5t-41 -96.5l-98 21q11 91 74.5 143t169.5 52q109 0 172 -53t63 -146z" />
<glyph unicode="3" horiz-adv-x="608" d="M299 309h-61v84h61q122 0 122 106q0 46 -36 77.5t-93 31.5q-54 0 -93 -32.5t-46 -88.5l-97 21q14 86 78 135t156 49q104 0 167.5 -53t63.5 -138q0 -106 -95 -149q110 -43 110 -165q0 -92 -68.5 -145.5t-174.5 -53.5q-100 0 -169 49t-83 145l98 24q6 -66 49.5 -100 t106.5 -34q61 0 101 32t40 85q0 54 -34 87t-103 33z" />
<glyph unicode="4" horiz-adv-x="545" d="M333 681h102v-434h73v-80h-73v-167h-94v167h-308v108zM302 488l-179 -241h218v235l6 82l-1 1q-26 -53 -44 -77z" />
<glyph unicode="5" horiz-adv-x="603" d="M60 157l95 32q11 -57 54 -87t100 -30q60 0 97 38t37 110q0 147 -133 147q-42 0 -66 -11t-59 -38h-102l56 362h364v-84h-271l-32 -189q52 44 120 44q103 0 163 -62.5t60 -168.5q0 -112 -65 -172t-169 -60q-92 0 -160 43t-89 126z" />
<glyph unicode="6" horiz-adv-x="620" d="M328 424q102 0 164 -62t62 -157t-63 -156t-166 -61q-55 0 -97.5 15.5t-79 53t-56.5 109t-20 173.5q0 353 252 353q84 0 143 -39t87 -111l-93 -37q-31 103 -137 103q-69 0 -109 -54.5t-43 -191.5q67 62 156 62zM454 205q0 60 -32 97.5t-92 37.5q-51 0 -91.5 -22t-63.5 -56 q11 -109 49 -149.5t101 -40.5q61 0 95 37t34 96z" />
<glyph unicode="7" horiz-adv-x="504" d="M199 0h-108l286 600h-344v80h444v-96z" />
<glyph unicode="8" horiz-adv-x="623" d="M551 178q0 -89 -63.5 -139.5t-175.5 -50.5t-176 50.5t-64 139.5q0 70 33.5 108t98.5 63q-55 24 -84 60t-29 97q0 84 56.5 134.5t164.5 50.5t163.5 -50.5t55.5 -134.5q0 -61 -29 -97t-84 -60q65 -24 99 -62.5t34 -108.5zM451 178q0 33 -9.5 56t-32 38t-41.5 22.5t-57 18.5 q-31 -10 -46 -15.5t-36.5 -16.5t-31.5 -23.5t-17.5 -32.5t-7.5 -47q0 -48 36.5 -77t103.5 -29t103 29t36 77zM431 506q0 46 -28.5 73.5t-90.5 27.5t-91.5 -27.5t-29.5 -73.5q0 -53 29 -78t91 -44q61 20 90.5 44.5t29.5 77.5z" />
<glyph unicode="9" horiz-adv-x="620" d="M292 256q-102 0 -164 62t-62 157t63 156t166 61q55 0 97.5 -15t79.5 -52t56.5 -108.5t19.5 -175.5q0 -105 -19.5 -176.5t-55.5 -109t-78.5 -52.5t-98.5 -15q-84 0 -143 39t-87 111l93 37q31 -103 137 -103q35 0 59.5 10t46 35.5t33.5 75.5t13 125q-67 -62 -156 -62z M166 475q0 -60 32 -97.5t92 -37.5q51 0 91.5 22t63.5 56q-12 113 -49 151.5t-101 38.5q-61 0 -95 -37t-34 -96z" />
<glyph unicode=":" horiz-adv-x="176" d="M41 90h94v-90h-94v90zM41 500h94v-90h-94v90z" />
<glyph unicode=";" horiz-adv-x="176" d="M41 500h94v-90h-94v90zM71 -122l-28 46q42 11 42 76h-44v90h94v-90q0 -53 -14.5 -82t-49.5 -40z" />
<glyph unicode="&#x3c;" horiz-adv-x="381" d="M346 40l-62 -52l-262 262l262 262l62 -52l-210 -210z" />
<glyph unicode="=" horiz-adv-x="498" d="M43 307v74h404v-74h-404zM43 119v74h404v-74h-404z" />
<glyph unicode="&#x3e;" horiz-adv-x="381" d="M97 -12l-62 52l210 210l-210 210l62 52l262 -262z" />
<glyph unicode="?" horiz-adv-x="545" d="M227 95h99v-95h-99v95zM326 192h-100q0 24 3 43.5t10.5 36t13 27t20 23.5t20.5 18t25.5 18.5t24.5 17.5q32 23 46.5 49t14.5 71q0 50 -33.5 81t-94.5 31q-65 0 -103.5 -35.5t-43.5 -97.5l-98 21q12 92 76.5 144t168.5 52t166 -54t62 -142q0 -68 -26 -109.5t-77 -78.5 q-2 -1 -20.5 -14t-22.5 -18t-15 -18t-14 -29t-3 -37z" />
<glyph unicode="@" horiz-adv-x="833" d="M404 166q-64 0 -107 46t-43 115q0 80 45.5 132.5t116.5 52.5q56 0 87 -44l21 32h65l-33 -211q-7 -48 42 -50q38 0 64.5 35.5t26.5 103.5q0 106 -66 172.5t-182 66.5q-130 0 -210.5 -79t-80.5 -199q0 -123 76 -200t195 -77q85 0 153 50l55 -61q-91 -64 -208 -64 q-159 0 -259.5 97.5t-100.5 254.5q0 151 106.5 252t273.5 101q159 0 248 -86.5t89 -224.5q0 -103 -56 -159t-137 -56q-70 0 -89 44q-33 -44 -92 -44zM339 327q0 -38 19.5 -63t48.5 -25q41 0 61.5 32.5t20.5 76.5q0 42 -17 66.5t-51 24.5q-35 0 -58.5 -32t-23.5 -80z" />
<glyph unicode="A" horiz-adv-x="593" d="M112 0h-104l237 680h104l236 -680h-104l-62 178h-245zM297 530l-94 -268h187z" />
<glyph unicode="B" horiz-adv-x="625" d="M565 193q0 -98 -57 -145.5t-158 -47.5h-268v680h244q98 0 156.5 -48.5t58.5 -136.5q0 -101 -93 -143q117 -35 117 -159zM465 193q0 57 -30.5 85t-84.5 28h-168v-222h168q53 0 84 27t31 82zM441 495q0 101 -115 101h-144v-206h144q52 0 83.5 27t31.5 78z" />
<glyph unicode="C" horiz-adv-x="629" d="M509 197l83 -53q-36 -75 -102.5 -115.5t-154.5 -40.5q-135 0 -214.5 93t-79.5 257t80 259t214 95q91 0 159 -44t103 -125l-87 -47q-47 132 -175 132q-89 0 -141.5 -71.5t-52.5 -198.5q0 -126 52 -196t142 -70q126 0 174 125z" />
<glyph unicode="D" horiz-adv-x="647" d="M82 0v680h202q151 0 236.5 -87t85.5 -253q0 -165 -85.5 -252.5t-236.5 -87.5h-202zM284 596h-102v-512h102q106 0 164 64.5t58 191.5t-58 191.5t-164 64.5z" />
<glyph unicode="E" horiz-adv-x="584" d="M82 680h450v-85h-350v-197h290v-85h-290v-228h350v-85h-450v680z" />
<glyph unicode="F" horiz-adv-x="557" d="M82 680h450v-85h-350v-197h290v-85h-290v-313h-100v680z" />
<glyph unicode="G" horiz-adv-x="700" d="M361 271v84h267v-355h-75l-10 84q-68 -96 -189 -96q-135 0 -217 93.5t-82 256.5t82 258.5t217 95.5q87 0 152.5 -40t102.5 -115l-86 -46q-49 117 -169 117q-90 0 -144.5 -72t-54.5 -198q0 -125 54.5 -195.5t144.5 -70.5q80 0 127 52.5t60 146.5h-180z" />
<glyph unicode="H" horiz-adv-x="694" d="M512 680h100v-680h-100v310h-330v-310h-100v680h100v-285h330v285z" />
<glyph unicode="I" horiz-adv-x="264" d="M82 680h100v-680h-100v680z" />
<glyph unicode="J" horiz-adv-x="515" d="M-8 188l96 27q9 -66 42.5 -104.5t86.5 -38.5q57 0 89.5 45.5t32.5 123.5v439h100v-439q0 -118 -57.5 -185.5t-164.5 -67.5q-88 0 -147.5 54t-77.5 146z" />
<glyph unicode="K" horiz-adv-x="611" d="M451 680h125l-228 -255l247 -425h-110l-204 350l-99 -111v-239h-100v680h100v-302z" />
<glyph unicode="L" horiz-adv-x="528" d="M82 0v680h100v-595h338v-85h-438z" />
<glyph unicode="M" horiz-adv-x="854" d="M379 50l-141 320q-47 107 -64 156h-2q10 -88 10 -157v-369h-100v680h116l229 -505l229 505h116v-680h-100v370q0 69 10 157h-2q-17 -49 -64 -156l-141 -321h-96z" />
<glyph unicode="N" horiz-adv-x="720" d="M82 680h126l277 -452l57 -103h2q-6 57 -6 113v442h100v-680h-126l-283 464q-11 17 -23.5 41.5t-19.5 40.5l-8 16h-2q6 -64 6 -118v-444h-100v680z" />
<glyph unicode="O" horiz-adv-x="684" d="M41 338q0 163 82.5 258.5t217.5 95.5q136 0 219 -95t83 -259q0 -163 -83 -256.5t-219 -93.5q-135 0 -217.5 93.5t-82.5 256.5zM141 338q0 -125 55 -195.5t145 -70.5q91 0 146.5 70.5t55.5 195.5q0 126 -55.5 198t-146.5 72q-90 0 -145 -72t-55 -198z" />
<glyph unicode="P" horiz-adv-x="597" d="M82 680h272q98 0 156.5 -55.5t58.5 -151.5t-59 -151.5t-156 -55.5h-172v-266h-100v680zM354 596h-172v-246h172q52 0 83.5 32.5t31.5 90.5t-31 90.5t-84 32.5z" />
<glyph unicode="Q" horiz-adv-x="703" d="M41 338q0 163 82.5 258.5t217.5 95.5q136 0 219 -95t83 -259q0 -136 -60 -226q17 -22 29.5 -35t35 -24.5t47.5 -11.5v-84q-62 0 -102 23t-74 63q-75 -55 -178 -55q-135 0 -217.5 93.5t-82.5 256.5zM141 338q0 -125 55 -195.5t145 -70.5q69 0 120 43q-47 55 -106 55v84 q96 0 161 -63q27 64 27 147q0 126 -55.5 198t-146.5 72q-90 0 -145 -72t-55 -198z" />
<glyph unicode="R" horiz-adv-x="614" d="M82 680h268q98 0 156.5 -52t58.5 -145q0 -74 -38 -122.5t-104 -65.5l151 -295h-109q-32 63 -147 286h-136v-286h-100v680zM350 596h-168v-226h168q53 0 84 29t31 84q0 56 -31 84.5t-84 28.5z" />
<glyph unicode="S" horiz-adv-x="597" d="M41 162l94 36q32 -125 166 -125q74 0 114.5 31t40.5 86q0 33 -23 54t-45 28.5t-75 18.5l-6 1.5t-5 1t-6 1.5q-33 7 -46.5 10.5t-42 11t-41.5 14t-34.5 18t-31.5 24.5t-21.5 30.5t-16 40t-4.5 49.5q0 84 67.5 141.5t171.5 57.5q111 0 168.5 -41t74.5 -130l-96 -29 q-10 62 -43.5 88.5t-103.5 26.5q-62 0 -100.5 -33t-38.5 -81q0 -17 5 -31t19 -24.5t23.5 -17t34.5 -14t36 -10t42 -9.5q35 -7 52.5 -11.5t47.5 -13.5t45.5 -17.5t36.5 -23.5t31 -32.5t17.5 -42.5t7.5 -56q0 -95 -67.5 -148.5t-187.5 -53.5q-205 0 -260 174z" />
<glyph unicode="T" horiz-adv-x="492" d="M2 595v85h488v-85h-190v-595h-100v595h-198z" />
<glyph unicode="U" horiz-adv-x="682" d="M76 680h100v-449q0 -73 45.5 -116t119.5 -43t119.5 43t45.5 116v449h100v-449q0 -111 -73 -177t-192 -66t-192 66.5t-73 176.5v449z" />
<glyph unicode="V" horiz-adv-x="620" d="M499 680h103l-224 -680h-118l-242 680h104l171 -482q6 -17 12 -41.5t9 -40.5l3 -16h2q9 60 22 99z" />
<glyph unicode="W" horiz-adv-x="906" d="M786 680h102l-186 -680h-114l-113 421q-7 24 -13 52.5t-8 44.5l-3 17h-1q-9 -58 -23 -114l-104 -421h-113l-192 680h102l115 -412l27 -118h1q7 54 23 117l103 413h118l110 -412l27 -123h1q12 59 29 122z" />
<glyph unicode="X" horiz-adv-x="567" d="M37 680h111l135 -229l136 229h108l-190 -320l214 -360h-111l-158 266l-158 -266h-108l212 357z" />
<glyph unicode="Y" horiz-adv-x="544" d="M2 680h109l133 -261q8 -15 15 -33t10 -29l3 -11h1q10 40 27 73l133 261h109l-220 -435v-245h-100v245z" />
<glyph unicode="Z" horiz-adv-x="576" d="M47 596v84h496v-86l-378 -510h373v-84h-496v87l377 509h-372z" />
<glyph unicode="[" horiz-adv-x="312" d="M278 705v-80h-108v-705h108v-80h-202v865h202z" />
<glyph unicode="\" horiz-adv-x="440" d="M405 0h-93l-294 705h93z" />
<glyph unicode="]" horiz-adv-x="312" d="M236 705v-865h-202v80h108v705h-108v80h202z" />
<glyph unicode="^" horiz-adv-x="636" d="M280 717h75l228 -376h-99l-166 274l-166 -274h-99z" />
<glyph unicode="_" horiz-adv-x="534" d="M504 -80v-80h-474v80h474z" />
<glyph unicode="`" horiz-adv-x="281" d="M56 637l60 55l116 -130l-44 -40z" />
<glyph unicode="a" horiz-adv-x="511" d="M222 -12q-85 0 -132 40.5t-47 112.5q0 80 83 124t224 50v42q0 35 -25.5 55t-70.5 20q-43 0 -73 -20t-40 -51l-88 32q19 53 72 86t129 33q88 0 139 -41.5t51 -113.5v-263q0 -54 29 -94h-98q-13 21 -19 45q-66 -57 -134 -57zM222 68q69 0 128 57v110q-213 -10 -213 -94 q0 -34 22.5 -53.5t62.5 -19.5z" />
<glyph unicode="b" horiz-adv-x="564" d="M299 512q104 0 161 -72t57 -191t-56 -190t-158 -71q-69 0 -134 50l-4 -38h-89v705h94v-244q58 51 129 51zM295 432q-74 0 -125 -53v-260q56 -51 124 -51q60 0 94.5 49.5t34.5 131.5t-34 132.5t-94 50.5z" />
<glyph unicode="c" horiz-adv-x="536" d="M417 147l79 -46q-31 -53 -84 -83t-119 -30q-108 0 -173 72t-65 189t65 190t173 73q66 0 119 -30t84 -84l-79 -47q-41 81 -124 81q-67 0 -105.5 -50.5t-38.5 -132.5t38.5 -131.5t105.5 -49.5q82 0 124 79z" />
<glyph unicode="d" horiz-adv-x="564" d="M259 -12q-104 0 -161 72t-57 191t56 190t158 71q71 0 139 -54v247h94v-705h-89l-5 43v1q-61 -56 -135 -56zM263 68q80 0 131 59v248q-59 57 -130 57q-60 0 -94.5 -49.5t-34.5 -131.5t34 -132.5t94 -50.5z" />
<glyph unicode="e" horiz-adv-x="530" d="M489 225h-353q5 -72 43 -114.5t100 -42.5q74 0 116 66l74 -52q-69 -94 -190 -94q-108 0 -173 72t-65 189q0 118 61.5 190.5t168.5 72.5q103 0 160.5 -74.5t57.5 -193.5v-19zM271 432q-54 0 -87.5 -34t-44.5 -93h251q-11 58 -41.5 92.5t-77.5 34.5z" />
<glyph unicode="f" horiz-adv-x="354" d="M381 698l-36 -75q-32 14 -74 14q-29 0 -48.5 -20t-19.5 -55v-62h118v-80h-118v-420h-94v420h-80v80h80v62q0 71 46.5 113t115.5 42q57 0 110 -19z" />
<glyph unicode="g" horiz-adv-x="546" d="M528 532v-80q-52 0 -83 -19q35 -46 35 -110q0 -89 -61.5 -139.5t-148.5 -50.5q-56 0 -103 21q-27 -13 -27 -44q0 -28 30.5 -37t107.5 -9q118 0 174 -34.5t56 -113.5q0 -88 -59 -121.5t-166 -33.5q-110 0 -179.5 34t-69.5 112q0 67 61 99q-44 28 -44 84q0 67 65 98 q-55 52 -55 135q0 91 60 140t149 49q76 0 132 -38q46 58 126 58zM155 323q0 -51 33 -80.5t82 -29.5t82.5 29t33.5 81t-33.5 80.5t-82.5 28.5t-82 -28.5t-33 -80.5zM279 -29q-62 0 -110 9q-43 -16 -43 -70q0 -71 157 -71q133 0 133 70q0 33 -29.5 47.5t-107.5 14.5z" />
<glyph unicode="h" d="M308 432q-79 0 -138 -66v-366h-94v705h94v-258q67 65 155 65q81 0 125 -42t44 -113v-357h-94v347q0 44 -21.5 64.5t-70.5 20.5z" />
<glyph unicode="i" horiz-adv-x="246" d="M76 500h94v-500h-94v500zM76 705h94v-90h-94v90z" />
<glyph unicode="j" horiz-adv-x="273" d="M103 705h94v-90h-94v90zM-62 -215l33 76q39 -15 71 -15q61 0 61 56v598h94v-598q0 -67 -40 -101.5t-115 -34.5q-55 0 -104 19z" />
<glyph unicode="k" horiz-adv-x="528" d="M516 0h-107l-161 252l-78 -82v-170h-94v705h94v-408l196 203h122l-175 -181z" />
<glyph unicode="l" horiz-adv-x="246" d="M76 705h94v-705h-94v705z" />
<glyph unicode="m" horiz-adv-x="849" d="M298 432q-78 0 -128 -63v-369h-94v500h94v-49q59 61 145 61q105 0 142 -77q33 38 70 57.5t91 19.5q76 0 117.5 -42t41.5 -113v-357h-94v347q0 44 -18.5 64.5t-63.5 20.5q-76 0 -128 -63q0 -2 0.5 -6t0.5 -6v-357h-94v347q0 44 -18.5 64.5t-63.5 20.5z" />
<glyph unicode="n" d="M308 432q-79 0 -138 -66v-366h-94v500h94v-53q67 65 155 65q81 0 125 -42t44 -113v-357h-94v347q0 44 -21.5 64.5t-70.5 20.5z" />
<glyph unicode="o" horiz-adv-x="558" d="M40 250q0 117 65 189.5t173 72.5q109 0 174.5 -72.5t65.5 -189.5t-65.5 -189.5t-174.5 -72.5q-108 0 -173 72.5t-65 189.5zM134 250q0 -82 38.5 -132t105.5 -50q68 0 107 50t39 132t-39 132t-107 50q-67 0 -105.5 -50t-38.5 -132z" />
<glyph unicode="p" horiz-adv-x="564" d="M300 512q104 0 161 -72t57 -191t-56 -190t-158 -71q-69 0 -134 50v-263h-94v725h89l4 -40q61 52 131 52zM296 432q-74 0 -126 -54v-258q57 -52 125 -52q60 0 94.5 49.5t34.5 131.5t-34 132.5t-94 50.5z" />
<glyph unicode="q" horiz-adv-x="564" d="M265 -12q-104 0 -161 72t-57 191t56 190t158 71q67 0 133 -50l5 38h89v-725h-94v263q-59 -50 -129 -50zM269 68q74 0 125 53v260q-57 51 -124 51q-60 0 -94.5 -49.5t-34.5 -131.5t34 -132.5t94 -50.5z" />
<glyph unicode="r" horiz-adv-x="356" d="M342 512v-102q-130 -4 -172 -110v-300h-94v500h94v-85q64 93 172 97z" />
<glyph unicode="s" horiz-adv-x="475" d="M344 138q0 21 -18.5 35t-36 19t-55.5 13t-55.5 12.5t-47.5 17t-44 27.5t-25.5 41t-11.5 60q0 66 53.5 107.5t132.5 41.5q83 0 129 -28.5t61 -90.5l-90 -32q-13 71 -100 71q-39 0 -65.5 -19.5t-26.5 -49.5q0 -19 18.5 -33t38.5 -20t53 -13q36 -8 55.5 -13t48 -17.5 t43 -27.5t26 -41t11.5 -60q0 -73 -53 -111.5t-145 -38.5q-80 0 -134.5 34.5t-73.5 101.5l90 32q20 -88 118 -88q48 0 76 18t28 52z" />
<glyph unicode="t" horiz-adv-x="354" d="M13 420v80h82v136l94 25v-161h120v-80h-120v-277q0 -35 19.5 -55t48.5 -20q34 0 66 10l23 -77q-43 -13 -89 -13q-69 0 -115.5 42t-46.5 113v277h-82z" />
<glyph unicode="u" d="M490 0h-94v53q-68 -65 -155 -65q-81 0 -125 42t-44 113v357h94v-347q0 -44 21.5 -64.5t70.5 -20.5q78 0 138 65v367h94v-500z" />
<glyph unicode="v" horiz-adv-x="526" d="M22 500h100l122 -327l24 -83h2q9 44 22 82l114 328h98l-176 -500h-118z" />
<glyph unicode="w" horiz-adv-x="767" d="M437 500l91 -294q6 -20 12 -46.5t8 -43.5l3 -16h2q7 62 19 106l83 294h90l-140 -500h-106l-92 300q-6 18 -11 42t-8 39l-2 15h-2q-8 -55 -19 -95l-85 -301h-105l-153 500h91l90 -294q6 -20 11.5 -46.5t7.5 -43.5l3 -16h2q7 61 20 106l83 294h107z" />
<glyph unicode="x" horiz-adv-x="538" d="M505 0h-110l-128 184l-128 -184h-106l181 261l-166 239h110l111 -160l111 160h106l-164 -237z" />
<glyph unicode="y" horiz-adv-x="500" d="M10 500h100l120 -298q6 -16 13 -41t11 -41l4 -17q12 63 26 100l111 297h99l-210 -560q-36 -94 -84.5 -137t-117.5 -43q-36 0 -82 11l25 77q35 -8 57 -8q35 0 61.5 29.5t52.5 98.5l14 37z" />
<glyph unicode="z" horiz-adv-x="480" d="M39 420v80h406v-80l-289 -340h284v-80h-406v80l289 340h-284z" />
<glyph unicode="{" horiz-adv-x="391" d="M139 380v140q0 82 51 133.5t141 51.5h26v-80h-26q-46 0 -72 -29t-26 -76v-140q0 -76 -65 -109q65 -34 65 -109v-137q0 -47 26 -76t72 -29h22v-80h-22q-90 0 -141 51.5t-51 133.5v137q0 33 -17.5 51t-45.5 18h-16v80h16q28 0 45.5 18t17.5 51z" />
<glyph unicode="|" horiz-adv-x="241" d="M76 705h89v-869h-89v869z" />
<glyph unicode="}" horiz-adv-x="391" d="M252 520v-140q0 -33 17.5 -51t45.5 -18h16v-80h-16q-28 0 -45.5 -18t-17.5 -51v-137q0 -82 -51 -133.5t-141 -51.5h-22v80h22q46 0 72 29t26 76v137q0 75 65 109q-65 33 -65 109v140q0 47 -26 76t-72 29h-26v80h26q90 0 141 -51.5t51 -133.5z" />
<glyph unicode="&#xa1;" horiz-adv-x="251" d="M175 405h-99v95h99v-95zM175 -180h-99v149l15 339h69l15 -339v-149z" />
<glyph unicode="&#xa2;" horiz-adv-x="536" d="M244 680h100v-80q100 -20 152 -109l-79 -47q-41 81 -124 81q-67 0 -105.5 -50.5t-38.5 -132.5t38.5 -131.5t105.5 -49.5q82 0 124 79l79 -46q-51 -88 -152 -108v-86h-100v86q-88 16 -138.5 84.5t-50.5 171.5t51 172.5t138 85.5v80z" />
<glyph unicode="&#xa9;" horiz-adv-x="833" d="M74 339q0 155 98.5 254t248.5 99q149 0 248.5 -99t99.5 -254q0 -154 -99.5 -252.5t-248.5 -98.5q-150 0 -248.5 98t-98.5 253zM162 339q0 -122 73.5 -199.5t185.5 -77.5q111 0 185.5 77.5t74.5 199.5t-74.5 200.5t-185.5 78.5q-112 0 -185.5 -78t-73.5 -201zM493 279 l73 -42q-45 -78 -143 -78q-73 0 -121 50.5t-48 130.5t48 131t121 51q97 0 144 -77l-73 -45q-25 48 -71 48q-35 0 -58 -30t-23 -78t22.5 -77.5t58.5 -29.5q48 0 70 46z" />
<glyph unicode="&#xae;" horiz-adv-x="833" d="M74 339q0 155 98.5 254t248.5 99q149 0 248.5 -99t99.5 -254q0 -154 -99.5 -252.5t-248.5 -98.5q-150 0 -248.5 98t-98.5 253zM162 339q0 -122 73.5 -199.5t185.5 -77.5q111 0 185.5 77.5t74.5 199.5t-74.5 200.5t-185.5 78.5q-112 0 -185.5 -78t-73.5 -201zM572 162h-93 l-66 129h-46v-129h-85v359h162q56 0 92 -33t36 -83q0 -74 -71 -104zM444 449h-77v-86h77q19 0 30.5 11t11.5 31q0 19 -12 31.5t-30 12.5z" />
<glyph unicode="&#xb0;" horiz-adv-x="440" d="M46 541q0 79 47.5 127.5t125.5 48.5q77 0 125.5 -49t48.5 -127q0 -77 -48.5 -125.5t-125.5 -48.5q-78 0 -125.5 48t-47.5 126zM134 541q0 -45 23 -72.5t62 -27.5t62.5 27.5t23.5 72.5q0 46 -23.5 74t-62.5 28t-62 -28t-23 -74z" />
<glyph unicode="&#xb1;" horiz-adv-x="543" d="M226 470h89v-123h157v-74h-157v-123h-89v123h-158v74h158v123zM68 30v74h404v-74h-404z" />
<glyph unicode="&#xb4;" horiz-adv-x="275" d="M172 692l60 -55l-132 -115l-44 40z" />
<glyph unicode="&#xbf;" horiz-adv-x="545" d="M318 405h-99v95h99v-95zM219 308h100q0 -24 -3 -43.5t-10.5 -36t-13 -27t-20 -23.5t-20.5 -18t-25.5 -18.5t-24.5 -17.5q-32 -23 -46.5 -49t-14.5 -71q0 -50 33.5 -81t94.5 -31q65 0 103.5 35.5t43.5 97.5l98 -21q-12 -92 -76.5 -144t-168.5 -52t-166 54t-62 142 q0 68 26 109.5t77 78.5q2 1 20.5 14t22.5 18t15 18t14 29t3 37z" />
<glyph unicode="&#xc1;" horiz-adv-x="617" d="M308 887l60 -55l-132 -115l-44 40zM124 0h-104l237 680h104l236 -680h-104l-62 178h-245zM309 530l-94 -268h187z" />
<glyph unicode="&#xc9;" horiz-adv-x="578" d="M318 887l60 -55l-132 -115l-44 40zM76 680h450v-85h-350v-197h290v-85h-290v-228h350v-85h-450v680z" />
<glyph unicode="&#xcd;" horiz-adv-x="252" d="M170 887l60 -55l-132 -115l-44 40zM76 680h100v-680h-100v680z" />
<glyph unicode="&#xd3;" horiz-adv-x="684" d="M359 887l60 -55l-132 -115l-44 40zM41 338q0 163 82.5 258.5t217.5 95.5q136 0 219 -95t83 -259q0 -163 -83 -256.5t-219 -93.5q-135 0 -217.5 93.5t-82.5 256.5zM141 338q0 -125 55 -195.5t145 -70.5q91 0 146.5 70.5t55.5 195.5q0 126 -55.5 198t-146.5 72 q-90 0 -145 -72t-55 -198z" />
<glyph unicode="&#xd7;" horiz-adv-x="525" d="M24 427l66 56l172 -173l172 171l66 -56l-177 -175l175 -175l-66 -56l-171 170l-172 -171l-66 56l178 176z" />
<glyph unicode="&#xda;" horiz-adv-x="674" d="M348 887l60 -55l-132 -115l-44 40zM72 680h100v-449q0 -73 45.5 -116t119.5 -43t119.5 43t45.5 116v449h100v-449q0 -111 -73 -177t-192 -66t-192 66.5t-73 176.5v449z" />
<glyph unicode="&#xe1;" horiz-adv-x="511" d="M297 717l60 -55l-132 -115l-44 40zM222 -12q-85 0 -132 40.5t-47 112.5q0 80 83 124t224 50v42q0 35 -25.5 55t-70.5 20q-43 0 -73 -20t-40 -51l-88 32q19 53 72 86t129 33q88 0 139 -41.5t51 -113.5v-263q0 -54 29 -94h-98q-13 21 -19 45q-66 -57 -134 -57zM222 68 q69 0 128 57v110q-213 -10 -213 -94q0 -34 22.5 -53.5t62.5 -19.5z" />
<glyph unicode="&#xe9;" horiz-adv-x="530" d="M318 717l60 -55l-132 -115l-44 40zM489 225h-353q5 -72 43 -114.5t100 -42.5q74 0 116 66l74 -52q-69 -94 -190 -94q-108 0 -173 72t-65 189q0 118 61.5 190.5t168.5 72.5q103 0 160.5 -74.5t57.5 -193.5v-19zM271 432q-54 0 -87.5 -34t-44.5 -93h251q-11 58 -41.5 92.5 t-77.5 34.5z" />
<glyph unicode="&#xed;" horiz-adv-x="248" d="M157 717l60 -55l-132 -115l-44 40zM77 500h94v-500h-94v500z" />
<glyph unicode="&#xf3;" horiz-adv-x="560" d="M316 717l60 -55l-132 -115l-44 40zM41 250q0 117 65 189.5t173 72.5q109 0 174.5 -72.5t65.5 -189.5t-65.5 -189.5t-174.5 -72.5q-108 0 -173 72.5t-65 189.5zM135 250q0 -82 38.5 -132t105.5 -50q68 0 107 50t39 132t-39 132t-107 50q-67 0 -105.5 -50t-38.5 -132z" />
<glyph unicode="&#xf7;" horiz-adv-x="493" d="M19 213v74h453v-74h-453zM199 120h94v-90h-94v90zM199 470h94v-90h-94v90z" />
<glyph unicode="&#xfa;" d="M308 717l60 -55l-132 -115l-44 40zM396 0h94v500h-94v-367q-60 -65 -138 -65q-49 0 -70.5 20.5t-21.5 64.5v347h-94v-357q0 -71 44 -113t125 -42q87 0 155 65v-53z" />
<glyph unicode="&#x2013;" horiz-adv-x="518" d="M50 231v80h418v-80h-418z" />
<glyph unicode="&#x2014;" horiz-adv-x="752" d="M50 231v80h652v-80h-652z" />
<glyph unicode="&#x2018;" horiz-adv-x="197" d="M114 717l28 -46q-42 -11 -42 -76h44v-90h-94v90q0 53 14.5 82t49.5 40z" />
<glyph unicode="&#x2019;" horiz-adv-x="220" d="M92 493l-28 46q42 11 42 76h-44v90h94v-90q0 -53 -14.5 -82t-49.5 -40z" />
<glyph unicode="&#x201c;" horiz-adv-x="330" d="M105 717l28 -46q-42 -11 -42 -76h44v-90h-94v90q0 53 14.5 82t49.5 40zM259 717l28 -46q-42 -11 -42 -76h44v-90h-94v90q0 53 14.5 82t49.5 40z" />
<glyph unicode="&#x201d;" horiz-adv-x="356" d="M92 493l-28 46q42 11 42 76h-44v90h94v-90q0 -53 -14.5 -82t-49.5 -40zM246 493l-28 46q42 11 42 76h-44v90h94v-90q0 -53 -14.5 -82t-49.5 -40z" />
<glyph unicode="&#x2020;" horiz-adv-x="452" d="M8 426v74h173v180h89v-180h174v-74h-174v-550h-89v550h-173z" />
<glyph unicode="&#x2021;" horiz-adv-x="452" d="M8 426v74h173v180h89v-180h174v-74h-174v-284h174v-74h-174v-192h-89v192h-173v74h173v284h-173z" />
<glyph unicode="&#x2022;" horiz-adv-x="401" d="M54 309q0 61 42.5 102.5t103.5 41.5t104 -42t43 -102t-43 -101.5t-104 -41.5t-103.5 41.5t-42.5 101.5z" />
<glyph unicode="&#x2026;" horiz-adv-x="528" d="M41 90h94v-90h-94v90zM217 90h94v-90h-94v90zM393 90h94v-90h-94v90z" />
<glyph unicode="&#x2190;" horiz-adv-x="661" d="M649 287v-74h-476l173 -173l-62 -52l-262 262l262 262l62 -52l-173 -173h476z" />
<glyph unicode="&#x2191;" horiz-adv-x="550" d="M319 0h-88v469l-161 -161l-62 52l267 267l267 -267l-62 -52l-161 161v-469z" />
<glyph unicode="&#x2192;" horiz-adv-x="661" d="M12 213v74h476l-173 173l62 52l262 -262l-262 -262l-62 52l173 173h-476z" />
<glyph unicode="&#x2193;" horiz-adv-x="550" d="M231 615h88v-469l161 161l62 -52l-267 -267l-267 267l62 52l161 -161v469z" />
<glyph unicode="&#x2196;" horiz-adv-x="544" d="M536 89l-62 -52l-315 326v-234h-83v371h373v-74h-239z" />
<glyph unicode="&#x2197;" horiz-adv-x="554" d="M70 37l-62 52l336 337h-239v74h373v-371h-83v234z" />
<glyph unicode="&#x2198;" horiz-adv-x="544" d="M8 411l62 52l315 -326v234h83v-371h-373v74h239z" />
<glyph unicode="&#x2199;" horiz-adv-x="554" d="M484 453l62 -52l-336 -327h239v-74h-373v371h83v-234z" />
<glyph unicode="&#x2212;" horiz-adv-x="488" d="M43 213v74h404v-74h-404z" />
<glyph unicode="&#x2260;" horiz-adv-x="494" d="M42 307v74h211l38 89h94l-38 -89h99v-74h-130l-48 -114h178v-74h-209l-37 -89h-94l37 89h-101v74h132l48 114h-180z" />
<glyph unicode="&#x25fc;" horiz-adv-x="500" d="M0 500h500v-500h-500v500z" />
<glyph unicode="&#xf730;" horiz-adv-x="584" d="M36 266q0 125 68.5 202t184.5 77q117 0 186 -77t69 -202q0 -126 -69 -202t-186 -76q-116 0 -184.5 76t-68.5 202zM132 266q0 -88 41.5 -140t115.5 -52q75 0 117 52t42 140t-42 140.5t-117 52.5q-74 0 -115.5 -52.5t-41.5 -140.5z" />
<glyph unicode="&#xf731;" horiz-adv-x="355" d="M36 345l-17 83q67 1 113.5 33.5t46.5 70.5h100v-7v-525h-100v387q-64 -38 -143 -42z" />
<glyph unicode="&#xf732;" d="M498 84v-84h-442v53q0 43 14.5 75t46.5 54.5t61.5 36t79.5 30.5h-1q50 17 77 28.5t50.5 35t23.5 54.5q0 95 -110 95q-127 0 -138 -110l-94 20q24 172 229 172q107 0 158 -50t51 -131q0 -26 -7 -48t-15.5 -37.5t-28 -31t-32.5 -24.5t-42 -21t-43 -17t-48 -17 q-54 -18 -86 -36.5t-44 -46.5h340z" />
<glyph unicode="&#xf733;" horiz-adv-x="589" d="M299 159h-61v84h61q122 0 122 106q0 46 -36 77.5t-93 31.5q-54 0 -93 -32.5t-46 -88.5l-97 21q14 86 78 135t156 49q104 0 167.5 -53t63.5 -138q0 -106 -95 -149q110 -43 110 -165q0 -92 -68.5 -145.5t-174.5 -53.5q-100 0 -169 49t-83 145l98 24q6 -66 49.5 -100 t106.5 -34q61 0 101 32t40 85q0 54 -34 87t-103 33z" />
<glyph unicode="&#xf734;" horiz-adv-x="545" d="M333 532h102v-434h73v-80h-73v-167h-94v167h-308v108zM302 339l-179 -241h218v235l6 82l-1 1q-26 -53 -44 -77z" />
<glyph unicode="&#xf735;" horiz-adv-x="565" d="M41 9l95 32q11 -57 54 -87t100 -30q60 0 97 38t37 110q0 147 -133 147q-42 0 -66 -11t-59 -38h-102l56 362h364v-84h-271l-32 -189q52 44 120 44q103 0 163 -62.5t60 -168.5q0 -112 -65 -172t-169 -60q-92 0 -160 43t-89 126z" />
<glyph unicode="&#xf736;" horiz-adv-x="580" d="M287 424q103 0 164.5 -62t61.5 -157t-63 -156t-166 -61q-55 0 -97.5 15.5t-79 53t-56.5 109t-20 173.5q0 353 252 353q84 0 143 -39t87 -111l-93 -37q-31 103 -137 103q-69 0 -109 -54.5t-43 -191.5q67 62 156 62zM413 205q0 60 -32 97.5t-92 37.5q-51 0 -91.5 -22 t-63.5 -56q11 -109 49 -149.5t101 -40.5q61 0 95 37t34 96z" />
<glyph unicode="&#xf737;" horiz-adv-x="504" d="M199 -148h-108l286 600h-344v80h444v-96z" />
<glyph unicode="&#xf738;" horiz-adv-x="561" d="M520 178q0 -89 -63.5 -139.5t-175.5 -50.5t-176 50.5t-64 139.5q0 70 33.5 108t98.5 63q-55 24 -84 60t-29 97q0 84 56.5 134.5t164.5 50.5t163.5 -50.5t55.5 -134.5q0 -61 -29 -97t-84 -60q65 -24 99 -62.5t34 -108.5zM420 178q0 33 -9.5 56t-32 38t-41.5 22.5t-57 18.5 q-31 -10 -46 -15.5t-36.5 -16.5t-31.5 -23.5t-17.5 -32.5t-7.5 -47q0 -48 36.5 -77t103.5 -29t103 29t36 77zM400 506q0 46 -28.5 73.5t-90.5 27.5t-91.5 -27.5t-29.5 -73.5q0 -53 29 -78t91 -44q61 20 90.5 44.5t29.5 77.5z" />
<glyph unicode="&#xf739;" horiz-adv-x="580" d="M281 111q-103 0 -164.5 61.5t-61.5 157.5q0 95 63 156t166 61q55 0 97.5 -15t79.5 -52t56.5 -108.5t19.5 -175.5q0 -105 -19.5 -176.5t-55.5 -109t-78.5 -52.5t-98.5 -15q-84 0 -143 39t-87 111l93 37q31 -103 137 -103q35 0 59.5 10t46 35.5t33.5 75.5t13 125 q-67 -62 -156 -62zM155 330q0 -60 32 -97.5t92 -37.5q51 0 91.5 22t63.5 56q-12 113 -49 151.5t-101 38.5q-61 0 -95 -37t-34 -96z" />
</font>
</defs>
</svg>
